<?xml version="1.0" encoding="UTF-8" standalone="no"?>
<!DOCTYPE svg PUBLIC "-//W3C//DTD SVG 20010904//EN"
              "http://www.w3.org/TR/2001/REC-SVG-20010904/DTD/svg10.dtd">

<svg xmlns="http://www.w3.org/2000/svg"
     width="23.2927mm" height="23.2927mm"
     viewBox="0 0 88 88">
  <path id="Selection"
        fill="none" stroke="black" stroke-width="1"
        d="M 42.72,7.05
           C 49.04,5.36 47.07,17.04 46.01,18.21
             44.07,20.35 41.90,18.08 41.31,15.94
             40.49,12.93 40.93,9.50 42.72,7.05 Z
           M 18.62,17.17
           C 24.27,16.55 29.55,24.98 26.38,26.83
             23.92,28.28 15.41,22.03 18.62,17.17 Z
           M 67.98,17.08
           C 76.75,15.30 70.60,25.04 66.04,26.60
             63.35,27.52 61.30,25.70 62.25,22.96
             63.17,20.26 65.74,18.55 67.98,17.08 Z
           M 42.00,23.48
           C 68.71,20.93 73.04,59.38 49.00,63.67
             25.34,67.90 16.17,41.21 31.04,28.22
             34.55,25.15 37.60,24.43 42.00,23.48 Z
           M 44.00,29.59
           C 39.90,30.00 36.28,31.00 33.42,34.21
             27.10,41.30 29.02,58.44 45.00,57.94
             56.16,57.60 62.32,45.33 56.27,36.02
             53.17,31.25 49.36,29.96 44.00,29.59 Z
           M 7.66,42.02
           C 10.32,40.86 13.97,40.47 16.85,41.31
             19.35,42.04 20.34,44.26 18.41,45.83
             16.05,47.75 4.52,48.03 7.66,42.02 Z
           M 70.37,41.81
           C 73.01,40.99 77.08,40.36 79.81,41.81
             81.83,42.51 82.43,44.39 80.51,45.83
             77.95,47.76 65.92,47.95 70.37,41.81 Z
           M 63.36,61.25
           C 66.96,61.01 69.45,62.89 71.38,66.01
             72.36,67.59 73.23,70.53 70.68,71.18
             67.77,71.92 59.24,65.89 63.36,61.25 Z
           M 22.99,62.08
           C 31.22,60.41 26.26,69.05 22.01,70.92
             19.23,72.15 17.10,70.66 17.74,67.94
             18.40,65.16 20.79,63.55 22.99,62.08 Z
           M 43.26,69.17
           C 49.34,68.46 46.94,79.94 45.42,80.83
             43.34,82.05 41.78,79.65 41.31,77.94
             40.42,74.65 40.92,71.54 43.26,69.17 Z" />
</svg>
