<?xml version="1.0" encoding="UTF-8" standalone="no"?>
<!DOCTYPE svg PUBLIC "-//W3C//DTD SVG 20010904//EN"
              "http://www.w3.org/TR/2001/REC-SVG-20010904/DTD/svg10.dtd">

<svg xmlns="http://www.w3.org/2000/svg"
     width="26.469mm" height="18.5283mm"
     viewBox="0 0 100 70">
  <path id="Selection"
        fill="none" stroke="black" stroke-width="1"
        d="M 84.00,32.00
           C 97.37,34.55 103.01,50.61 93.61,60.79
             88.60,66.21 80.91,66.99 74.00,67.00
             74.00,67.00 26.00,67.00 26.00,67.00
             14.32,66.86 3.49,62.08 2.20,49.00
             1.04,37.26 11.80,31.80 14.07,28.63
             16.20,25.65 16.13,19.99 22.04,15.65
             29.13,10.45 35.51,13.32 38.72,11.93
             41.27,10.82 45.54,5.35 54.00,3.52
             64.95,1.14 76.87,6.66 81.47,17.00
             83.75,22.11 83.98,26.55 84.00,32.00 Z
           M 76.00,37.00
           C 76.78,32.71 77.94,28.36 77.06,24.00
             74.82,12.86 63.86,6.40 53.00,9.80
             43.85,12.67 44.38,20.33 37.00,19.36
             34.78,19.07 33.56,18.37 31.00,18.65
             21.75,19.67 21.01,27.72 21.00,35.00
             7.02,36.49 5.60,50.15 12.22,56.78
             16.44,60.99 22.47,60.99 28.00,61.00
             28.00,61.00 75.00,61.00 75.00,61.00
             79.20,60.98 83.35,60.93 86.89,58.30
             93.23,53.61 93.08,44.40 86.89,39.65
             83.42,36.98 80.13,37.04 76.00,37.00 Z" />
</svg>
