<?xml version="1.0" encoding="UTF-8" standalone="no"?>
<!DOCTYPE svg PUBLIC "-//W3C//DTD SVG 20010904//EN"
              "http://www.w3.org/TR/2001/REC-SVG-20010904/DTD/svg10.dtd">

<svg xmlns="http://www.w3.org/2000/svg"
     width="26.455mm" height="23.2804mm"
     viewBox="0 0 100 88">
  <path id="Selection"
        fill="none" stroke="black" stroke-width="1"
        d="M 41.00,19.00
           C 33.68,17.03 26.82,14.02 22.17,23.02
             20.34,26.58 21.78,29.77 19.40,32.16
             17.96,33.62 5.29,38.16 8.65,49.00
             12.33,60.90 24.96,56.91 28.85,58.60
             30.96,59.51 32.54,62.05 30.41,63.83
             28.57,65.36 22.36,65.08 20.00,64.83
             6.75,63.39 -1.35,51.82 3.11,39.00
             5.87,31.05 10.55,30.52 13.07,26.79
             15.12,23.76 15.61,15.94 24.00,12.07
             30.29,9.17 34.83,11.23 38.00,9.89
             41.66,8.36 46.43,1.50 57.00,1.04
             69.11,0.51 79.72,7.99 82.47,20.00
             83.16,23.00 83.00,26.88 83.00,30.00
             101.26,32.10 102.99,58.34 85.00,63.70
             81.61,64.71 74.42,65.58 71.06,64.57
             69.17,64.00 67.04,62.53 68.17,60.27
             70.27,56.09 78.90,59.68 84.98,56.55
             92.87,52.48 93.63,44.03 86.90,38.42
             83.51,35.59 80.20,35.21 76.00,35.00
             76.27,29.14 78.11,23.59 75.31,18.00
             69.86,7.10 56.67,3.49 47.04,11.39
             44.26,13.67 42.86,16.03 41.00,19.00 Z
           M 46.00,57.00
           C 45.90,58.35 45.90,59.67 45.49,60.98
             42.56,70.26 34.00,62.66 42.11,58.02
             43.52,57.22 44.51,57.24 46.00,57.00 Z
           M 48.00,69.00
           C 48.36,62.81 49.51,60.06 56.00,59.00
             55.33,64.82 53.76,67.29 48.00,69.00 Z
           M 59.00,70.86
           C 58.52,72.50 58.26,73.57 57.45,74.98
             56.94,75.87 56.22,76.96 55.33,77.67
             49.66,83.22 49.09,72.58 55.33,70.86
             56.73,70.24 57.59,70.71 59.00,70.86 Z
           M 39.00,79.00
           C 40.70,74.09 41.83,72.85 47.00,72.00
             46.35,77.59 45.08,80.25 39.00,79.00 Z
           M 37.00,74.00
           C 36.78,75.92 36.74,77.15 35.91,78.98
             31.52,88.79 24.09,81.81 32.30,75.60
             34.04,74.29 35.01,74.33 37.00,74.00 Z" />
</svg>
