<?xml version="1.0" encoding="UTF-8" standalone="no"?>
<!DOCTYPE svg PUBLIC "-//W3C//DTD SVG 20010904//EN"
              "http://www.w3.org/TR/2001/REC-SVG-20010904/DTD/svg10.dtd">

<svg xmlns="http://www.w3.org/2000/svg"
     width="27.5278mm" height="25.4103mm"
     viewBox="0 0 104 96">
  <path id="Selection"
        fill="none" stroke="black" stroke-width="1"
        d="M 54.26,3.25
           C 60.47,2.77 57.91,14.83 56.45,15.68
             54.34,16.91 52.80,14.72 52.31,12.94
             51.39,9.57 51.79,5.65 54.26,3.25 Z
           M 81.95,14.25
           C 89.95,13.71 82.33,22.48 79.02,23.92
             76.34,25.09 74.08,23.82 75.17,20.94
             76.30,17.97 79.36,15.79 81.95,14.25 Z
           M 26.79,15.04
           C 30.46,13.92 33.35,16.04 35.60,19.04
             36.70,20.61 38.07,23.61 35.60,24.83
             32.75,26.28 24.32,19.91 26.79,15.04 Z
           M 49.72,21.73
           C 64.67,18.65 77.31,28.40 76.98,44.00
             76.82,51.82 70.09,65.05 61.06,64.36
             58.76,64.18 57.37,62.51 58.74,60.37
             60.13,58.21 64.24,57.16 67.58,52.96
             74.43,44.36 70.29,33.32 61.00,28.69
             53.23,24.81 43.17,30.30 40.15,38.00
             38.52,42.13 39.78,51.19 35.26,48.83
             32.64,47.47 32.88,42.47 33.18,40.00
             34.31,30.92 41.43,24.53 49.72,21.73 Z
           M 17.15,40.74
           C 19.31,40.18 30.88,39.42 27.83,44.44
             26.13,47.25 8.63,46.79 17.15,40.74 Z
           M 82.00,41.16
           C 82.00,41.16 92.85,41.16 92.85,41.16
             94.23,41.72 95.86,42.83 94.83,44.46
             93.42,46.68 84.60,46.00 82.00,46.00
             82.00,46.00 82.00,41.16 82.00,41.16 Z
           M 34.00,53.65
           C 41.48,52.12 48.21,54.35 52.39,61.04
             54.67,64.69 54.51,67.38 55.98,69.68
             58.04,72.91 62.40,74.45 63.38,81.00
             64.19,86.40 60.21,92.14 55.00,93.86
             53.15,94.08 49.98,94.00 48.00,93.86
             48.00,93.86 18.00,93.86 18.00,93.86
             15.71,93.99 13.20,94.06 11.01,93.30
             4.24,90.95 0.95,82.41 4.17,76.00
             5.72,72.93 8.27,71.35 10.09,68.72
             11.50,66.66 11.88,64.55 14.22,62.23
             18.29,58.21 21.60,59.59 25.00,58.42
             25.00,58.42 34.00,53.65 34.00,53.65 Z
           M 47.00,77.00
           C 49.08,68.45 47.96,57.54 36.00,59.95
             31.38,60.88 30.40,63.82 27.83,65.28
             25.36,66.20 23.42,65.02 21.05,65.28
             16.09,66.60 16.68,71.13 17.00,75.00
             7.29,76.14 8.13,83.71 11.31,86.40
             13.55,88.29 17.24,87.99 20.00,88.00
             20.00,88.00 48.00,88.00 48.00,88.00
             49.97,87.99 52.90,88.13 54.57,86.98
             57.42,85.02 57.40,80.13 54.57,78.17
             52.64,76.85 49.27,77.02 47.00,77.00 Z
           M 76.33,62.34
           C 79.68,62.51 86.81,67.83 84.83,71.63
             83.75,73.71 81.40,72.59 80.00,71.63
             76.91,69.49 73.04,65.64 76.33,62.34 Z" />
</svg>
