<?xml version="1.0" encoding="UTF-8" standalone="no"?>
<!DOCTYPE svg PUBLIC "-//W3C//DTD SVG 20010904//EN"
              "http://www.w3.org/TR/2001/REC-SVG-20010904/DTD/svg10.dtd">

<svg xmlns="http://www.w3.org/2000/svg"
     width="26.469mm" height="26.469mm"
     viewBox="0 0 100 100">
  <path id="Selection"
        fill="none" stroke="black" stroke-width="1"
        d="M 41.00,21.00
           C 33.53,18.89 27.01,15.64 22.17,25.02
             20.33,28.59 21.81,31.68 19.43,33.93
             18.45,34.86 3.66,40.53 9.45,52.00
             11.76,56.57 15.94,59.39 21.00,59.90
             23.62,60.16 30.26,59.17 31.26,62.26
             32.69,66.70 24.26,66.02 22.00,66.00
             10.32,65.86 2.03,59.19 2.03,47.00
             2.03,43.31 2.62,40.13 4.70,37.00
             7.64,32.59 11.50,30.68 13.15,28.55
             14.77,26.45 15.05,23.63 16.44,21.00
             19.55,15.12 24.47,12.31 31.00,11.96
             31.00,11.96 36.58,11.96 36.58,11.96
             39.11,11.21 42.42,7.76 45.00,6.13
             48.38,4.00 53.02,2.67 57.00,2.33
             68.07,1.37 79.16,9.43 82.21,20.00
             83.22,23.49 83.00,27.39 83.00,31.00
             97.14,33.88 102.47,50.03 92.47,60.53
             88.22,65.00 83.90,65.93 78.00,66.00
             75.49,66.03 67.63,66.87 67.63,63.00
             67.63,62.19 68.00,61.52 68.62,61.02
             70.95,59.11 77.50,60.76 82.00,59.35
             92.87,55.94 94.48,43.47 84.00,38.17
             84.00,38.17 75.00,36.00 75.00,36.00
             76.14,32.47 77.11,29.80 76.89,26.00
             76.33,15.94 66.88,8.37 57.00,9.10
             49.12,9.67 44.90,14.76 41.00,21.00 Z
           M 38.00,72.00
           C 39.43,64.98 44.49,59.70 48.57,54.00
             49.91,52.13 52.36,48.10 54.30,47.08
             56.67,45.84 58.72,47.21 58.16,50.06
             57.69,52.42 54.33,56.94 52.86,59.00
             52.86,59.00 48.00,66.00 48.00,66.00
             48.00,66.00 61.00,66.00 61.00,66.00
             59.33,71.27 49.77,86.55 46.32,92.00
             45.20,93.75 42.28,99.15 39.61,97.60
             37.28,96.32 38.90,92.66 39.61,91.00
             39.61,91.00 51.00,72.00 51.00,72.00
             51.00,72.00 38.00,72.00 38.00,72.00 Z
           M 17.37,72.08
           C 26.20,69.98 18.43,84.35 15.63,85.92
             13.13,87.32 11.46,85.57 11.75,82.94
             12.16,79.27 14.73,74.53 17.37,72.08 Z
           M 29.37,72.08
           C 37.98,70.03 30.39,84.38 27.63,85.92
             25.22,87.27 22.93,85.66 23.69,81.98
             24.41,78.51 26.82,74.43 29.37,72.08 Z
           M 66.37,72.08
           C 74.97,70.03 67.09,84.55 64.63,85.92
             62.24,87.26 59.93,85.68 60.69,81.98
             61.41,78.51 63.82,74.43 66.37,72.08 Z
           M 78.37,72.08
           C 87.30,69.95 78.27,84.79 76.38,85.95
             74.32,87.22 71.91,85.77 72.69,81.98
             73.41,78.51 75.82,74.43 78.37,72.08 Z" />
</svg>
