<?xml version="1.0" encoding="utf-8"?>
<svg width="26.469mm" height="18.5283mm" viewBox="3.71 3.06 93.23 63.01" xmlns="http://www.w3.org/2000/svg">
  <path style="stroke: rgb(0, 0, 0); fill: none; stroke-width: 4px;" d="M 22.8 21.59 C 24.62 17.51 29.13 16.15 32.45 17 C 36.61 17.62 39.47 17.28 41.56 15.6 C 41.56 15.6 44.37 11.4 50.55 8.53 C 56.73 5.67 64.3 5.19 71.81 10.73 C 74.04 11.75 78.05 16.84 79.44 22.27 C 80.82 27.7 77.85 42.06 79.1 34.81 L 80.44 37.18 C 102.9 43.63 90.03 61.92 80.11 61.98 L 18.66 61.95 C 7.11 61.45 2.44 36.35 19.32 33.46 L 20.83 33.11 C 21.32 33.64 19.79 25.19 22.8 21.59 Z" transform="matrix(0.999999, -0.001623, 0.001623, 0.999999, -0.05545, 0.082547)"/>
</svg>