<?xml version="1.0" encoding="utf-8"?>
<svg height="292.118697" viewBox="0 9.29 59.79 29.65" width="342.326598" xmlns="http://www.w3.org/2000/svg">
  <g fill="#011321" stroke-width="1.7705" transform="matrix(.56483 0 0 .56483 -257.23 -19.213)">
    <path d="m516.64 96.426c.34375.35938.75782.47266 1.2305.30469v6.2305s0-.0117-.73047-.0117c-5.5156-.125-10.613-1.9492-14.789-4.9766 2.2695-2.1172 4.7812-5.4414 6.2656-8.6992.94531.03125 2.1172.01562 3.6953-.16797.80859-.09375 1.2852-.10156 2.0938-.13281.32812-.01172.91797-.20703.82812-.8125-.0508-.36328-.24609-.86328-.39843-1.2539-.17969-.45703.41015-.71875.64062-.35938.13281.21094.42188.89453.51953 1.1211.19141.4375.70703.95703 1.082 1.2305.32032.23437.66797.41797 1.043.55469.75391.26953 1.4141.70703 1.9922 1.2578.17969.17187.33984.36719.48828.56641.51953.67969.66406 1.0156-.0547 1.832-.64843.73828-1.4375 1.1836-2.4023 1.3203-.64844.08984-1.1484-.12109-1.4258-.75-.0508-.11328-.11328-.22266-.17578-.33203-.1211-.21484-.23828-.4375-.37891-.64453-.19922-.29688-.47656-.46484-.84765-.40625-.59766.08984-1.1914.18359-1.7852.29688-.10156.01953-.34766.17969-.28125.23438.31641.54688.66406 1.043 1.0664 1.4922.1914.21484.42187.31641.71875.30469.57812-.02344.60156 0 .83984.52344.11328.24609.22266.49609.35937.72656.11329.19531.25.38281.40625.55078m2.1797-5.1133c-.53125.01953-1.0508.11719-1.5976.24609.0195.48047.1875.87891.36718 1.2695.16016.34375.32032.4375.69141.39062.20312-.02734.41016-.08984.58984-.18359.35938-.20312.48828-.55469.39453-.96094-.0625-.26953-.19531-.5-.44531-.76172m15.18-7.7774c-.14453-.45312-.40625-.81641-.78516-1.1016-.3164-.23438-.6289-.47266-.95703-.69531-.13672-.09375-.29687-.14453-.45312-.20703-.19922-.08203-.36719-.01563-.4961.14844-.11328.14844-.20703.3125-.32422.46094-.14062.18359-.33203.23438-.55468.16797-.20313-.05859-.3086-.21875-.31641-.48047-.004-.10547-.004-.21484.0195-.3125.17578-.69531.46485-1.3359.90625-1.9023.0625-.08203.14063-.15234.22266-.21484.21484-.16406.41797-.15625.625.0078.74609.75391 1.3828 1.3555 2.0625 1.9062.73437.59375.93359 1.4453 1.0625 2.3086-.0234.125-.0273.23047-.0625.32422-.0547.14453-.16797.23438-.33203.24609-.14844.01172-.30078-.0039-.38282-.14844-.0898-.16016-.17578-.33203-.23437-.50781m-1.5195 4.0469c.28515-.07813.47656.08203.51953.375.0156.125.0156.24609.0195.30469 0 .82812-.23047 1.2227-1.2109 1.293-.41015-.02344-.53125-.13281-.57031-.34375-.0898-.53516.0703-.99219.50781-1.3086.21094-.15625.47657-.24609.73438-.32031m28.781-37.125-6.1055 16.941h-7.7891v9.3086c-.008.25.004.5 0 .75-.0977 13.887-11.258 25.148-25.043 25.484l-1.2852.0195v-7.7266l.46875-.20703c.39063-.16406.72656-.39453.94531-.77344.2461-.41797.60938-.58594 1.0977-.58203.67188.0039.79688-.12109.92578-.75781.11719-.69531.20703-1.2734.32813-1.8438.11328-.53516.0547-1.0391-.24219-1.5-.52344-.82422-1.0469-1.6523-1.5938-2.4609-.37891-.55469-.57813-.58203-1.0938-.11719l.47266.87891c.375.52344.75781 1.0469 1.1211 1.582.11719.16797.22266.36328.25391.55859.13671.82812.0117 1.6211-.38672 2.3594-.0508.08984-.17578.14062-.29297.22656-.0664-.13672-.13281-.22266-.15235-.31641-.0312-.1875-.0508-.375-.0469-.5625 0-.69141-.22266-1.293-.66016-1.8398-.53515-.66406-1.0312-1.3594-1.5312-2.0508-.48828-.66797-.42578-1.375.16407-1.9648.2539-.24609.51953-.48047.78125-.72266.36328-.32812.63281-.71875.79687-1.1758.12891-.35156.24609-.71094.32813-1.0742.19921-.89844.2539-1.8125.24218-2.7344l.008-.6875c0-.17188.0625-.32422.18359-.44922.19531-.19922.49609-.18359.64453.05469.0859.13672.15625.29297.19141.45312.17968.79688.27734 1.6016.1875 2.418-.11328 1.0195-.32032 2.0117-.62891 2.9883-.0625.19141-.16797.375-.12109.625.16015 0 .30078.01563.4414 0 .28907-.03516.57813-.09375.86719-.12891.98438-.10938 1.8398-.48047 2.5312-1.2109.31641-.33203.66406-.63281 1-.94922.12891-.12109.27734-.17969.45313-.10547.16406.07031.26171.25.20703.47266-.0547.24219-.125.48438-.23438.70703-.17969.375-.3789.74219-.60547 1.0898-.48047.73438-.88672 1.5039-1.1953 2.3281-.1875.50781-.40625 1.0039-.58203 1.5117-.17578.51562-.0508.66016.46875.59375.41406-.05078.52734.03906.55469.44922.0117.16406-.004.33203 0 .49609.004.1875 0 .37891.0312.5625.1289.74609.94531 1.2227 1.6523.96094.33203-.125.64453-.29297.95703-.45703.23828-.12891.46094-.28516.69141-.42969.64062-.40625 1.3398-.66406 2.1016-.72656.3125-.02344.625-.02344.9375-.01563.53906.01953.96875-.17969 1.3164-.58984.1875-.21875.38281-.44141.60156-.63281.37109-.33203.64844-.35547 1.0742-.08984.33594.20703.65625.44531.98047.67188.51172.35938 1.0469.68359 1.625.92578.52343.21875 1.0664.35547 1.6406.29687.0742-.01172.14063-.04687.27344-.09375-.13672-.125-.21875-.21484-.3125-.28516-.26172-.20312-.55078-.37891-.79688-.60156-.35156-.32031-.70312-.65234-1.0117-1.0156-.39063-.45703-.7461-.94531-1.1094-1.4297-.21484-.28125-.42969-.5625-.61328-.86328-.0898-.15234-.13672-.34766-.14844-.52734-.0195-.25.22656-.42578.46485-.33594.17187.06641.34375.16406.47656.28516.49219.45312.97265.91406 1.4492 1.3789.29687.29297.57031.60938.87109.89453.34766.33203.73047.62109 1.1992.76953.50781.15625.78516.15234 1.4141-.08984.0703-.08594-.32422-.26562-.32422-.26562-1.3242-.67188-2.3047-1.5742-3.168-2.7852-.59375-.83594-1.0742-1.7344-1.4961-2.6641-.48828-1.082-.84766-2.2148-1.2461-3.332-.48438-1.3516-.97266-2.6992-1.4805-4.043-.33594-.88672-.86719-1.6562-1.4609-2.3906-.78516-.96484-1.75-1.7188-2.7617-2.4219-1.0273-.71875-2.1289-1.3008-3.2226-1.9102-1.8203-1.0078-3.7227-1.8633-5.4727-3-.30078-.17578-.44141-.24609-.58203-.30469-.0664-.02734-.30469-.12109-.55078-.18359l-.29688-.05469v-15.562zm-39.766 21.047c-.1289-.10156-.25-.22266-.34375-.35547-.14453-.20313-.14453-.42969-.0234-.64844.12109-.21484.3164-.32422.5664-.32031.10156.0039.21094.01172.30469.05078.21094.08203.42969.16016.62109.28125.92578.59375 1.668 1.3672 2.207 2.3242.23829.42187.36329.89453.36719 1.2656-.0234.16016 0 .36328-.21484.45703-.15235.0625-.31641-.0039-.45313-.23047-.58203-.97266-1.4258-1.668-2.332-2.3047-.23828-.16797-.47656-.33594-.69922-.51953m-21.805 24.262c-.41797.39453-.84766.77734-1.2891 1.1445-.44531.37109-.90234.72266-1.3711 1.0625-4.3242 3.1328-9.6367 4.9883-15.375 4.9883-14.473 0-26.25-11.781-26.25-26.254 0-14.477 11.777-26.25 26.25-26.25 5.7383 0 11.051 1.8477 15.375 4.9844-4.0078 3.8984-6.9219 8.918-8.2266 14.551-1.793-1.9062-4.332-3.0977-7.1484-3.0977-5.4102 0-9.8125 4.4023-9.8125 9.8125s4.4023 9.8125 9.8125 9.8125c2.8164 0 5.3555-1.1914 7.1484-3.0977.52734-.55859.98828-1.1797 1.375-1.8555.82031-1.4336 1.293-3.0898 1.293-4.8594 0-7.5 3.1602-14.273 8.2188-19.062.41796-.39453.84765-.77344 1.2891-1.1406.44531-.37109.90234-.72266 1.3711-1.0625 4.3242-3.1367 9.6055-4.9844 15.523-4.9844l-.004 16.059s-.12109.12109-.33203.21094c-.0937.03906-.54297.1875-.90234.22656-2.375.26172-4.5 1.3789-6.0586 3.0391-.52734.55859-.98828 1.1836-1.375 1.8516-.82031 1.4375-1.293 3.0938-1.293 4.8633 0 7.4961-3.1602 14.273-8.2188 19.059"/>
  </g>
</svg>