<?xml version="1.0" encoding="utf-8"?>
<svg width="68.8195mm" height="164.108mm" viewBox="0 0 260 620" xmlns="http://www.w3.org/2000/svg">
  <path id="Selection #1" fill="none" stroke="black" d="M 99 242 L 106.83 170 C 110.55 132.85 113.94 95.35 114 58 L 115 41 L 115 29 C 115.01 23.55 115.33 16.69 118.85 12.21 C 123.07 6.85 134.97 6.31 139.61 11.23 C 144.23 16.12 144.99 29.38 145 36 L 145 68 L 147 96 L 147 105 L 152.17 168 L 160 240 C 165.36 236.7 169.16 234.73 174.98 238.7 C 177.93 240.71 183.66 247.73 179.4 250.98 C 178.06 251.99 164.82 251 162 250.98 L 167 297 L 167.96 311 C 168.21 316.9 167.43 318.05 167.04 323 L 167.04 336 L 166.09 346 L 164.17 369 C 160.08 412.31 153.87 453.4 152.36 496.11 L 152.92 496.11 L 155 476 L 155.91 466 L 159.72 430 L 168.09 352 L 170 326 L 170 307 L 166 259 L 187 263 C 190.16 263.66 195.3 264.56 197.79 266.56 C 200.77 268.95 202.21 273.45 203.28 277 C 205.45 284.19 207.91 297.57 208 305 C 208.41 340.19 199.21 379.61 191.58 414 C 188.05 429.87 182.05 449.97 182 466 L 184 466 C 184.26 454.23 189.88 432.14 192.58 420 C 193.95 413.79 196.41 400.05 199 395 L 199 474 C 198.97 488.64 193.24 485.21 188.57 495 C 186.86 498.58 187.01 502.15 187 506 L 187 565 L 181 565 L 181 538 L 79 538 L 79 565 L 72 565 L 72 506 L 70.43 495 L 61.17 483 L 60 474 L 60 419 L 61 394 L 73.12 448 L 77 464 C 76.99 448.89 68.97 420.07 65.42 404 C 61.08 384.34 52.03 341.74 52 323 L 52 299 C 52.09 291.28 55.38 271.54 61.34 266.56 C 63.87 264.45 68.76 263.85 72 263.2 L 93 259 L 89 307 L 89 323 L 90.91 350 L 100.84 438 L 104.68 476 L 105.72 487 L 106.69 496.34 C 108.02 489.14 106.7 482.86 106.61 475.26 L 99.28 407 L 92.91 342 L 92 330 L 92 303 L 97 251 L 77.97 252 C 77.72 249.85 77.36 248.18 77.97 246 C 79.23 241.21 85.86 235.64 91 236.53 C 94.18 237.09 96.76 239.89 99 242 Z M 37 41 L 38.6 34.02 L 44 33 L 68 33 L 68 41 L 78 41 L 78 33 L 82 33 L 82 41 L 112 41 L 111 67 L 93 67.9 L 74 76.69 L 52 87.68 L 39.54 99.01 L 30 100 L 30 41 L 37 41 Z M 177 33 L 182 33 L 182 41 L 191 41 L 192.6 34.02 L 198 33 L 222 33 L 222 41 L 229 41 L 229 100 L 220.32 99.43 L 207 87.31 L 188 78.22 L 166 67.9 L 148 67 L 148 41 L 177 41 L 177 33 Z M 33.1 117.74 C 38.19 116.45 50.23 116.92 56 117 C 59.19 117.05 61.82 116.95 64.2 119.43 C 70.37 125.85 69 144.33 69 153 C 69 161.77 70.6 182.64 62.79 188.15 C 60.01 190.11 56.25 189.98 53 190 L 42 190 C 37.57 189.99 33.71 190.36 30.42 186.77 C 26.45 182.45 26.01 174.57 26 169 L 26 135 C 26.08 128.53 27.2 121.37 33.1 117.74 Z M 196.1 118.02 C 198.86 117.06 199.07 117.06 202 117 L 219 117 C 230.18 117.08 230.9 122.4 232.27 132 L 233 165 C 232.99 171.67 232.46 185.14 225.9 188.69 C 223.13 190.18 219.09 190 216 190 C 209.81 190.01 198.87 191.52 194.39 186.77 C 190.23 182.37 190.01 175.69 190 170 L 190 134 C 190.08 127.62 190.84 122.18 196.1 118.02 Z M 73 118 L 83 118 L 78 138 L 108 126 C 107.98 134.2 108.55 135.78 102 141 L 107 141 L 105.05 151.27 L 98 153.8 L 84 157 L 102.98 166.5 L 104 174 L 91 171 C 101.73 176.27 103.45 177.98 102 189 L 84 177.33 C 76.69 172.45 72.06 171.32 72 162 L 71.32 132 L 73 118 Z M 175 118 L 186 118 L 187 133 L 187 161 L 185.98 168.7 L 178 175.57 L 157.1 189 L 157.1 180.09 L 171 168 L 155.81 174 L 155.81 168.21 L 162 163.25 L 177 156 L 161 153.2 L 154.02 150.44 L 153 141 L 159 140 C 151.02 137.9 151.16 133.42 151 126 L 181 138 L 175 118 Z M 78 138 L 77 138 L 78 139 L 78 138 Z M 182 138 L 181 138 L 182 139 L 182 138 Z M 90 169 L 89 169 L 90 170 L 90 169 Z M 33.1 499.02 C 35.86 498.06 36.07 498.06 39 498 L 57 498 C 59.5 498.05 61.67 498.01 63.79 499.6 C 71.17 505.12 69 526.24 69 535 C 69 543.62 71.22 564.97 62.81 569.69 C 60.13 571.19 56.02 571 53 571 C 47.38 571.01 35.69 572.19 31.56 568.35 C 27.33 564.43 27.01 557.34 27 552 L 27 515 C 27.08 508.62 27.84 503.18 33.1 499.02 Z M 196.11 499.02 C 198.86 498.06 199.07 498.06 202 498 L 219 498 C 229.93 498.07 230.89 503.45 232.27 513 L 233 546 C 232.99 552.67 232.46 566.14 225.9 569.69 C 223.13 571.18 219.09 571 216 571 C 209.81 571.01 198.87 572.52 194.39 567.77 C 190.23 563.37 190.01 556.69 190 551 L 190 516 C 190.08 509.7 190.95 503.15 196.11 499.02 Z M 81 606 L 81 549 C 81 547.06 80.77 543.14 82.02 541.61 C 83.62 539.67 92.16 541 95 541 L 166 541 C 175.96 540.88 177.98 537.52 178 549 L 178 606 L 173 606 L 173 594 L 86 594 L 86 606 L 81 606 Z" style="stroke-width: 2px;"/>
</svg>