<?xml version="1.0" encoding="utf-8"?>
<svg viewBox="0 6.66 300 44.22" width="2500" height="793" xmlns="http://www.w3.org/2000/svg">
  <path d="M157.91 43c0 1.2-.53 2.07-2.17 2.07h-10.47c-1.35 0-2.12-.39-2.12-1.64s.53-1.87 2.12-1.87h12.64zm46.17-5v-1.35c0-1.25.53-2.07 2.22-2.07h10.47c1.44 0 2.16.43 2.16 1.78 0 1.15-.57 1.68-2.06 1.68zm27.49-9.27v22.1h10.59V34.78h8.64c2.94 0 4.43.92 4.43 3.75v12.35h10.57V37.66c0-6.2-3.42-8.89-13.07-8.89zm-26 0c-8.51 0-11.92 2.83-11.92 9.22v4.38c0 5.52 3.41 8.5 11.1 8.5h22.35v-5.77h-20.28c-2 0-2.69-.58-2.69-2.07v-.91h16c5.52 0 8.64-1.73 8.64-5.86v-1c0-3.75-1.87-6.44-11.24-6.44zm-34 22.1h10.57V36.36c0-1 .39-1.59 1.69-1.59H192v-6h-11.75c-6.3 0-8.7 2.35-8.7 6.29zm-36.13-22.1v5.82h19.85c2 0 2.65.68 2.65 2.12v.85H142c-6.68 0-8.69 2.75-8.69 6.25v.86c0 4.86 3.89 6.2 11.53 6.2h11.73c8.31 0 11.91-1.87 11.91-8.41v-5.1c0-5.53-3.41-8.55-11.14-8.55zM72.18 41.07c0 7 3.55 9.8 12.73 9.8h20.14v-6h-18.6c-2.21 0-3.7-1-3.7-4.18v-1.88c0-2.84 1.39-4 3.65-4h18.65v-6H84.62c-9 0-12.44 3.79-12.44 9.85zm36-15.81v25.61h23v-6h-12.4V25.26zm-66 14.32V25.26h-6c-3.7 0-5.81 1.48-8 3.22L0 50.87h12.73l18.75-15.18v15.18h8.79l18.16-15.28v15.28H69.2V25.26h-5.87c-3.17 0-5.38 1.3-7.59 3.12z"/>
  <path d="M291.22 6.66c-5.9 0-14.21 1.76-23.22 5.06a117.85 117.85 0 0 0-23 11.33A66.15 66.15 0 0 1 266.64 19c10.34 0 17.7 4 6.83 17.83 32-21 31.17-30.12 17.75-30.12" fill="#ff9800"/>
</svg>